<?xml version="1.0" standalone="no"?>
<!DOCTYPE svg PUBLIC "-//W3C//DTD SVG 20010904//EN"
 "http://www.w3.org/TR/2001/REC-SVG-20010904/DTD/svg10.dtd">
<svg version="1.0" xmlns="http://www.w3.org/2000/svg"
 width="792.000000pt" height="592.000000pt" viewBox="0 0 792.000000 592.000000"
 preserveAspectRatio="xMidYMid meet">

<g transform="translate(0.000000,592.000000) scale(0.100000,-0.100000)"
fill="#000000" stroke="none">
<path d="M3560 4109 l-375 -369 -203 0 c-223 0 -242 -4 -276 -60 -23 -40 -23
-280 0 -320 28 -46 63 -60 153 -60 57 0 81 -4 81 -12 0 -18 148 -973 160
-1033 12 -57 46 -100 96 -121 49 -21 1459 -21 1508 0 50 21 84 64 96 121 12
60 160 1015 160 1033 0 8 25 12 86 12 95 0 130 13 158 60 23 40 23 280 0 320
-34 56 -52 60 -285 60 l-214 0 -370 370 c-204 204 -377 370 -385 369 -8 0
-184 -166 -390 -370z m735 -29 l340 -340 -690 0 -690 0 345 340 c190 186 347
339 350 339 3 1 158 -152 345 -339z m615 -794 c0 -55 -164 -1052 -176 -1071
-8 -12 -26 -27 -40 -33 -18 -9 -222 -12 -745 -12 -784 0 -761 -2 -788 56 -10
23 -171 1018 -171 1060 0 12 155 14 960 14 819 0 960 -2 960 -14z"/>
<path d="M3449 2921 c-20 -20 -29 -39 -29 -61 0 -43 47 -90 90 -90 22 0 41 9
61 29 20 20 29 39 29 61 0 22 -9 41 -29 61 -20 20 -39 29 -61 29 -22 0 -41 -9
-61 -29z"/>
<path d="M4329 2921 c-20 -20 -29 -39 -29 -61 0 -43 47 -90 90 -90 22 0 41 9
61 29 20 20 29 39 29 61 0 22 -9 41 -29 61 -20 20 -39 29 -61 29 -22 0 -41 -9
-61 -29z"/>
<path d="M3850 2520 c-30 -11 -61 -27 -69 -35 -27 -27 -2 -29 51 -4 71 33 183
34 249 1 53 -26 59 -27 59 -8 0 22 -99 59 -170 63 -48 3 -79 -2 -120 -17z"/>
</g>
</svg>
